<?xml version="1.0" encoding="UTF-8" standalone="no"?>
<!DOCTYPE svg PUBLIC "-//W3C//DTD SVG 1.1//EN" "http://www.w3.org/Graphics/SVG/1.1/DTD/svg11.dtd">
<svg width="100%" height="100%" viewBox="0 0 221 14" version="1.1" xmlns="http://www.w3.org/2000/svg" xmlns:xlink="http://www.w3.org/1999/xlink" xml:space="preserve" xmlns:serif="http://www.serif.com/" style="fill-rule:evenodd;clip-rule:evenodd;stroke-linejoin:round;stroke-miterlimit:2;">
    <path d="M172.47,14C181.039,13.394 189.534,12.72 198.103,11.912C204.547,11.306 211.065,10.497 217.51,9.756C218.828,9.622 220.293,9.083 220,7.668C219.854,6.927 218.462,6.321 217.583,5.715C217.364,5.58 217.071,5.58 216.778,5.58C210.406,4.974 204.108,4.233 197.736,3.829C185.286,3.088 172.763,3.415 160.313,3.078C143.469,2.539 126.698,2.067 109.927,2C89.714,1.933 69.501,2.202 49.288,2.606C34.201,2.876 19.115,3.617 4.028,4.155C3.076,4.155 2.124,4.155 1.318,4.492C0.732,4.762 0.439,5.57 0,6.109C0.586,6.446 1.172,7.119 1.831,7.119C4.834,7.052 7.763,6.782 10.766,6.715C28.562,6.041 46.358,5.166 64.155,4.964C95.499,4.56 126.844,4.627 158.116,5.907C175.253,6.58 192.39,6.456 209.527,7.264L209.527,7.803C209.161,7.87 208.795,8.073 208.429,8.073C199.933,8.813 191.511,9.689 183.016,10.295C183.016,10.363 168.296,11.508 172.47,14Z" style="fill:rgb(230,176,34);fill-rule:nonzero;"/>
</svg>
